<svg width="230" height="28" fill="none" xmlns="http://www.w3.org/2000/svg">
  <g clip-path="url(#a)" fill="#fff">
    <path d="M31.52 13.547c0-4.796 3.623-8.37 8.372-8.37 2.838 0 5.164 1.295 6.61 3.525l-2.252 1.786c-1.053-1.494-2.448-2.374-4.407-2.374-3.059 0-5.09 2.227-5.09 5.433 0 3.207 2.08 5.508 5.263 5.508 1.837 0 3.306-.759 4.186-1.959v-1.542H39.6l.515-2.742h7.248v4.847c-1.395 2.522-4.138 4.26-7.443 4.26-4.797 0-8.397-3.575-8.397-8.372h-.003ZM52.769 21.627h-3.133V9.534h2.89v1.495c.783-1.079 1.983-1.642 3.305-1.642.416 0 .733.048 1.027.147v2.79H56c-1.859 0-3.231.98-3.231 3.159v6.144ZM57.86 15.605c0-3.696 2.374-6.34 5.702-6.34 1.715 0 3.085.711 3.868 1.91v-1.64h2.864v12.092h-2.912V20.06c-.784 1.175-2.153 1.86-3.817 1.86-3.328 0-5.703-2.644-5.703-6.317l-.003.003Zm9.35 0c0-2.423-1.494-3.5-3.037-3.5-1.715 0-3.085 1.32-3.085 3.474s1.37 3.453 3.085 3.453c1.543 0 3.037-1.027 3.037-3.427ZM76.342 21.627h-3.133V9.534h2.89v1.127c.783-.88 1.958-1.395 3.401-1.395 1.568 0 2.79.662 3.526 1.763.858-1.053 2.253-1.763 3.965-1.763 2.79 0 4.432 1.91 4.432 4.748v7.613H88.29v-7.174c0-1.42-.857-2.349-2.154-2.349-1.296 0-2.227.931-2.227 2.3v7.223h-3.158v-7.174c0-1.443-.858-2.349-2.18-2.349-1.32 0-2.226.931-2.226 2.349v7.174h-.003ZM97.344 21.627H94.21V9.534h2.89v1.127c.783-.88 1.958-1.395 3.401-1.395 1.568 0 2.79.662 3.526 1.763.858-1.053 2.253-1.763 3.965-1.763 2.79 0 4.432 1.91 4.432 4.748v7.613h-3.133v-7.174c0-1.42-.857-2.349-2.154-2.349-1.296 0-2.227.931-2.227 2.3v7.223h-3.158v-7.174c0-1.443-.858-2.349-2.18-2.349-1.32 0-2.226.931-2.226 2.349v7.174h-.003ZM114.04 15.605c0-3.696 2.374-6.34 5.702-6.34 1.715 0 3.085.711 3.869 1.91v-1.64h2.864v12.092h-2.912V20.06c-.784 1.175-2.154 1.86-3.818 1.86-3.328 0-5.702-2.644-5.702-6.317l-.003.003Zm9.35 0c0-2.423-1.494-3.5-3.036-3.5-1.715 0-3.085 1.32-3.085 3.474s1.37 3.453 3.085 3.453c1.542 0 3.036-1.027 3.036-3.427ZM132.523 21.627h-3.132V9.534h2.889v1.495c.784-1.079 1.984-1.642 3.306-1.642.416 0 .732.048 1.027.147v2.79h-.858c-1.859 0-3.232.98-3.232 3.159v6.144ZM142.511 13.547c0-4.796 3.622-8.37 8.323-8.37 3.036 0 5.532 1.494 6.928 3.99l-2.423 1.641c-1.027-1.69-2.496-2.694-4.505-2.694-2.963 0-5.091 2.204-5.091 5.459 0 3.254 2.131 5.41 5.091 5.41 2.006 0 3.475-1.004 4.505-2.693l2.423 1.641c-1.396 2.496-3.892 3.99-6.954 3.99-4.675 0-8.297-3.574-8.297-8.37v-.004ZM159.278 15.58c0-3.6 2.743-6.317 6.291-6.317 3.549 0 6.34 2.742 6.34 6.316 0 3.575-2.765 6.34-6.34 6.34-3.574 0-6.291-2.765-6.291-6.34Zm9.424 0c0-2.007-1.321-3.428-3.11-3.428s-3.085 1.395-3.085 3.427 1.274 3.427 3.085 3.427 3.11-1.443 3.11-3.427ZM173.45 15.605c0-3.696 2.375-6.34 5.703-6.34 1.715 0 3.084.711 3.868 1.91v-1.64h2.864v12.092h-2.912V20.06c-.784 1.175-2.153 1.86-3.818 1.86-3.328 0-5.702-2.644-5.702-6.317l-.003.003Zm9.351 0c0-2.423-1.495-3.5-3.037-3.5-1.715 0-3.085 1.32-3.085 3.474s1.37 3.453 3.085 3.453c1.542 0 3.037-1.027 3.037-3.427ZM188.116 15.58c0-3.623 2.765-6.317 6.317-6.317 2.349 0 4.163 1.152 5.142 3.01l-2.205 1.617c-.685-1.027-1.568-1.738-2.889-1.738-1.885 0-3.133 1.42-3.133 3.427s1.248 3.427 3.133 3.427c1.296 0 2.204-.71 2.864-1.737l2.227 1.616c-.979 1.859-2.79 3.036-5.142 3.036-3.549 0-6.317-2.716-6.317-6.339l.003-.003ZM204.784 21.627h-3.133V3.569l3.133-.006v7.047c.784-.858 1.933-1.347 3.306-1.347 2.668 0 4.406 1.91 4.406 4.748v7.613h-3.133V14.45c0-1.395-.905-2.349-2.275-2.349-1.37 0-2.301.954-2.301 2.349v7.174l-.003.003ZM216.387 13.01V7.524h-2.252V5.467h6.732v2.058h-2.204v5.484h-2.276Zm5.533 0V5.348h.759l3.28 3.795 3.28-3.795h.758v7.663h-2.275v-2.595l-1.421 1.568h-.71l-1.37-1.542v2.57h-2.301v-.004ZM14.461 18.84v-1.116h-2.108v-6.322h9.956v13.8a28.495 28.495 0 0 1-10.163 1.858c-4.709 0-7.946-1.143-9.71-3.43-.908-1.185-1.542-2.575-1.901-4.17-.36-1.597-.538-3.567-.538-5.91s.178-4.338.538-5.909C.92 6.045 1.596 4.653 2.558 3.47 4.378 1.157 7.89 0 13.098 0c1.075 0 2.464.11 4.17.331 1.735.22 3.003.467 3.801.744l-1.24 6.323c-2.23-.385-4.256-.578-6.072-.578-1.817 0-3.057.139-3.801.413-.716.275-1.076.827-1.076 1.653v11.691h2.729c.99 0 1.706-.096 2.148-.289.466-.22.701-.701.701-1.446l.003-.003Z">
    </path>
  </g>
  <defs>
    <clipPath id="a">
      <path fill="#fff" d="M0 0h230v27.061H0z">
      </path>
    </clipPath>
  </defs>
</svg>