<svg role="img" viewBox="0 0 400 54" fill="none" xmlns="http://www.w3.org/2000/svg">
  <title>Thesaurus.com</title>
  <path
    d="M345.202 16.9603C338 16.9603 332.338 22.432 332.338 29.4134C332.338 36.3948 337.95 41.9105 345.153 41.9105C352.355 41.9105 358.111 36.4003 358.111 29.4134C358.111 22.4264 352.438 16.9603 345.202 16.9603ZM345.202 36.1579C341.468 36.1579 338.759 33.3422 338.759 29.463C338.759 25.5838 341.468 22.6634 345.202 22.6634C348.937 22.6634 351.64 25.5893 351.64 29.463C351.64 33.3367 348.87 36.1579 345.202 36.1579ZM329.834 22.735L325.452 26.1238C323.834 23.7709 321.961 22.6744 319.568 22.6744C315.79 22.6744 313.02 25.5122 313.02 29.4189C313.02 33.3256 315.79 36.213 319.557 36.213C321.873 36.213 323.745 35.1109 325.435 32.8132L329.823 36.1524C327.712 39.8497 323.939 41.9656 319.463 41.9656C312.261 41.9656 306.599 36.4554 306.599 29.4189C306.599 22.3824 312.25 16.9713 319.463 16.9713C323.967 16.9713 327.74 19.0707 329.834 22.735ZM384.022 27.3195V41.3815H377.701V27.4683C377.701 24.5258 375.945 22.6248 373.225 22.6248C370.504 22.6248 368.604 24.5699 368.604 27.4683V41.3815H362.277V17.5058H368.061V19.8807L368.327 19.6107C369.211 18.737 370.265 18.0521 371.424 17.5982C372.584 17.1444 373.824 16.931 375.07 16.9713C378.216 16.9713 380.671 18.145 382.161 20.3711L382.272 20.5364L382.405 20.3822C383.415 19.2737 384.653 18.3951 386.036 17.8065C387.418 17.2178 388.912 16.933 390.416 16.9713C395.956 16.9713 399.446 20.6356 399.446 26.5371V41.3815H393.119V27.4683C393.119 24.5258 391.363 22.6248 388.648 22.6248C385.934 22.6248 384.022 24.5534 384.022 27.3195ZM93.1305 15.1144H82.7205V41.3926H76.3992V15.1144H66.0391V9.46094H93.1305V15.1144ZM103.297 27.4793V41.3926H96.9532V9.46094H103.28V19.7871L103.54 19.5281C104.413 18.6934 105.442 18.0388 106.57 17.6019C107.698 17.1649 108.901 16.9544 110.111 16.9824C115.507 16.9824 118.975 20.7403 118.975 26.5536V41.3926H112.737V27.4793C112.737 24.5809 110.859 22.6358 108.067 22.6358C105.275 22.6358 103.297 24.6305 103.297 27.4793ZM135.779 17.0099C134.126 16.9923 132.486 17.3026 130.956 17.9226C129.425 18.5427 128.034 19.4601 126.864 20.6212C125.694 21.7822 124.769 23.1637 124.142 24.6847C123.515 26.2057 123.199 27.8357 123.214 29.4795C123.214 36.6042 128.865 41.9766 136.366 41.9766C139.858 41.9807 143.236 40.7415 145.889 38.4832L143.297 34.2458C141.393 35.781 139.016 36.6194 136.565 36.6207C132.942 36.6207 130.383 34.8354 129.54 31.7166L129.491 31.5293H146.665C146.924 30.3915 147.061 29.2298 147.075 28.0634C147.064 21.644 142.316 16.9824 135.779 16.9824V17.0099ZM129.491 27.1928L129.54 26.9999C130.338 23.9197 132.637 22.0022 135.529 22.0022C138.671 22.0022 140.892 24.074 140.937 27.0385V27.1928H129.491ZM149.585 37.4693L152.737 33.6893C154.865 35.8107 157.169 36.8852 159.552 36.8852C161.557 36.8852 162.798 36.0587 162.798 34.7307C162.798 33.513 161.718 33.0446 160.2 32.3889L157.596 31.2869C153.673 29.7109 151.064 27.876 151.064 24.0575C151.064 19.7264 154.51 16.9328 159.845 16.9328C163.352 16.9328 166.227 18.112 168.383 20.4483L165.23 24.2724C163.758 22.8904 161.82 22.1045 159.795 22.0683C158.017 22.0683 157.025 22.7295 157.025 23.9307C157.025 25.0328 157.878 25.5287 159.673 26.223L162.034 27.1983C166.189 28.8513 168.759 30.6642 168.759 34.4332C168.759 39.0287 165.103 41.9932 159.435 41.9932C155.441 41.9766 151.856 40.3291 149.585 37.4693ZM197.524 41.4146V17.5224H191.762V20.8671L191.485 20.4869C189.823 18.2277 187.114 16.9824 183.801 16.9824C177.058 16.9824 172.166 22.2391 172.166 29.4795C172.166 36.7199 177.058 41.9766 183.801 41.9766C187.025 41.9766 189.718 40.7699 191.385 38.5713L191.662 38.2077V41.3926L197.524 41.4146ZM185.042 36.2791C181.313 36.2791 178.604 33.4193 178.604 29.4795C178.604 25.5397 181.297 22.6358 185.042 22.6358C188.178 22.6358 191.335 24.7518 191.335 29.4795C191.335 34.2073 188.161 36.2791 185.042 36.2791ZM202.482 30.8956V17.5224H208.804V31.4356C208.771 32.0696 208.871 32.7034 209.099 33.2965C209.326 33.8896 209.675 34.4291 210.124 34.8802C210.573 35.3314 211.112 35.6845 211.706 35.9168C212.3 36.1492 212.936 36.2556 213.574 36.2295C216.277 36.2295 218.244 34.2128 218.244 31.4356V17.5224H224.565V30.8956C224.565 37.4197 220.045 41.9766 213.574 41.9766C207.103 41.9766 202.466 37.4197 202.466 30.8956H202.482ZM235.823 29.4795V41.3926H229.48V17.5224H235.263V20.7513L235.54 20.3932C236.308 19.3904 237.303 18.5816 238.443 18.0321C239.584 17.4826 240.838 17.2079 242.106 17.2303C242.785 17.217 243.462 17.3024 244.117 17.4838V23.0271H242.499C238.227 23.0271 235.806 25.3799 235.806 29.4795H235.823ZM248.438 30.8956V17.5224H254.759V31.4356C254.726 32.0696 254.827 32.7034 255.054 33.2965C255.282 33.8896 255.631 34.4291 256.08 34.8802C256.529 35.3314 257.068 35.6845 257.662 35.9168C258.255 36.1492 258.892 36.2556 259.529 36.2295C262.233 36.2295 264.2 34.2128 264.2 31.4356V17.5224H270.521V30.8956C270.521 37.4197 266 41.9766 259.529 41.9766C253.058 41.9766 248.421 37.4197 248.421 30.8956H248.438ZM273.468 37.4693L276.621 33.6893C278.748 35.8107 281.053 36.8852 283.435 36.8852C285.441 36.8852 286.687 36.0587 286.687 34.7307C286.687 33.513 285.579 33.0446 284.089 32.3889L281.479 31.2869C277.563 29.7109 274.948 27.876 274.948 24.0575C274.948 19.7264 278.399 16.9328 283.734 16.9328C287.241 16.9328 290.111 18.112 292.272 20.4483L289.119 24.2724C287.646 22.8923 285.708 22.1066 283.684 22.0683C281.906 22.0683 280.914 22.7295 280.914 23.9307C280.914 25.0328 281.773 25.5287 283.563 26.223L285.923 27.1983C290.078 28.8513 292.654 30.6642 292.654 34.4332C292.654 39.0287 288.992 41.9932 283.33 41.9932C279.308 41.9766 275.718 40.3291 273.468 37.4693ZM304.122 37.6015C304.135 38.1201 304.042 38.6359 303.85 39.118C303.658 39.6002 303.369 40.0388 303.003 40.4076C302.636 40.7765 302.198 41.0679 301.716 41.2646C301.233 41.4613 300.716 41.5592 300.194 41.5524C299.66 41.5722 299.127 41.4846 298.627 41.2949C298.127 41.1052 297.671 40.8171 297.286 40.448C296.901 40.079 296.594 39.6364 296.385 39.1469C296.176 38.6573 296.068 38.1308 296.068 37.5988C296.068 37.0668 296.176 36.5403 296.385 36.0507C296.594 35.5612 296.901 35.1186 297.286 34.7495C297.671 34.3804 298.127 34.0924 298.627 33.9027C299.127 33.7129 299.66 33.6254 300.194 33.6452C300.714 33.6385 301.23 33.7358 301.712 33.9315C302.193 34.1272 302.63 34.4172 302.997 34.7842C303.363 35.1513 303.652 35.5879 303.845 36.0681C304.038 36.5483 304.133 37.0623 304.122 37.5795V37.6015Z"
    fill="white"></path>
  <path
    d="M34.6257 52.8591C34.6265 52.9626 34.5997 53.0644 34.5479 53.1541C34.4962 53.2438 34.4214 53.3183 34.3312 53.3698C34.2411 53.4214 34.1388 53.4482 34.0348 53.4476C33.9308 53.4469 33.8288 53.4188 33.7393 53.3661L31.0246 51.7957L15.7725 42.9794C15.6769 42.9206 15.5968 42.8399 15.539 42.744C15.4812 42.6482 15.4473 42.5399 15.4401 42.4283V22.6247C15.433 22.4536 15.36 22.2918 15.2363 22.1728C15.1125 22.0538 14.9475 21.9867 14.7753 21.9855H1.21853C1.13149 21.9862 1.04516 21.9698 0.964534 21.9372C0.883906 21.9045 0.810572 21.8563 0.748764 21.7954C0.686956 21.7344 0.637898 21.6619 0.60442 21.582C0.570942 21.5021 0.553708 21.4163 0.553711 21.3298V1.21201C0.553711 1.03664 0.623754 0.868453 0.748432 0.744449C0.87311 0.620446 1.04221 0.550781 1.21853 0.550781H49.5232C49.6103 0.550778 49.6965 0.56792 49.7768 0.601216C49.8572 0.634513 49.9301 0.683306 49.9914 0.74478C50.0527 0.806253 50.1011 0.87919 50.1339 0.959382C50.1667 1.03957 50.1833 1.12543 50.1825 1.21201V21.3298C50.1825 21.5037 50.1131 21.6705 49.9894 21.7934C49.8658 21.9164 49.6981 21.9855 49.5232 21.9855H43.3847C43.2996 21.9855 43.2153 21.9688 43.1367 21.9364C43.058 21.904 42.9866 21.8565 42.9264 21.7966C42.8662 21.7368 42.8185 21.6657 42.7859 21.5875C42.7533 21.5093 42.7365 21.4254 42.7365 21.3408V11.4224C42.7378 11.2642 42.683 11.1106 42.5817 10.9887C42.4803 10.8667 42.339 10.7842 42.1825 10.7557L24.9692 7.84078C24.881 7.82712 24.7908 7.8446 24.7142 7.89019C24.6376 7.93578 24.5794 8.00659 24.5498 8.09036C24.5202 8.17413 24.521 8.26556 24.5521 8.3488C24.5831 8.43204 24.6425 8.50184 24.7199 8.54609L34.2545 13.7367C34.3706 13.8001 34.4674 13.8934 34.5347 14.0068C34.6019 14.1203 34.6372 14.2497 34.6368 14.3814V21.9855L34.6257 52.8591Z"
    fill="white"></path>
</svg>