<svg width="17" height="19" viewBox="0 0 17 19" xmlns="http://www.w3.org/2000/svg"><title>Android</title><path d="M10.615 4.37a.533.533 0 0 1-.54-.525c0-.29.242-.525.54-.525.298 0 .54.234.54.525 0 .29-.242.525-.54.525zm-4.317 0a.533.533 0 0 1-.54-.525c0-.29.241-.525.54-.525.298 0 .54.234.54.525 0 .29-.242.525-.54.525zm4.636-2.104c1.526.693 2.559 2.004 2.559 3.505H3.42c0-1.5 1.033-2.812 2.56-3.505l-.202-.295-.202-.292-.448-.655a.173.173 0 0 1 .05-.243.184.184 0 0 1 .25.05l.482.701.202.295.204.3a6.061 6.061 0 0 1 2.14-.383c.766 0 1.49.137 2.14.383l.206-.3.684-.997a.18.18 0 0 1 .248-.049.171.171 0 0 1 .05.243l-.448.655-.2.292-.202.295zM3.498 6.471h9.995v7.704c0 .612-.51 1.11-1.139 1.11h-.823c.028.092.045.189.045.291v2.218c0 .58-.484 1.05-1.081 1.05-.596 0-1.079-.47-1.079-1.05v-2.218c0-.102.015-.199.043-.291H7.454c.028.092.044.189.044.291v2.218c0 .58-.484 1.05-1.08 1.05-.596 0-1.08-.47-1.08-1.05v-2.218c0-.102.015-.199.044-.291H4.56c-.63 0-1.14-.498-1.14-1.11V6.471h.078zm-1.877 0c.596 0 1.079.47 1.079 1.05v4.495c0 .58-.483 1.05-1.08 1.05-.596 0-1.079-.47-1.079-1.05V7.52c0-.58.483-1.05 1.08-1.05zm13.672 0c.596 0 1.079.47 1.079 1.05v4.495c0 .58-.483 1.05-1.079 1.05-.597 0-1.08-.47-1.08-1.05V7.52c0-.58.483-1.05 1.08-1.05z" fill="#646B81" fill-rule="evenodd"/></svg>
