<svg width="16" height="19" viewBox="0 0 16 19" xmlns="http://www.w3.org/2000/svg"><title>Apple</title><path d="M10.243 2.985c.59-.762 1.037-1.838.875-2.937-.964.067-2.091.684-2.749 1.488-.6.729-1.092 1.813-.9 2.865 1.054.033 2.142-.599 2.774-1.416zm5.21 10.337c-.421.94-.624 1.36-1.168 2.194-.758 1.162-1.827 2.61-3.153 2.62-1.177.014-1.48-.77-3.078-.76-1.598.008-1.931.776-3.11.764-1.325-.012-2.338-1.318-3.096-2.48C-.273 12.41-.497 8.596.81 6.567c.931-1.44 2.399-2.283 3.778-2.283 1.403 0 2.286.774 3.448.774 1.127 0 1.813-.776 3.437-.776 1.228 0 2.53.673 3.456 1.835-3.037 1.674-2.545 6.037.524 7.204z" fill="#646B81" fill-rule="evenodd"/></svg>
