<svg width="18" height="18" viewBox="0 0 18 18" xmlns="http://www.w3.org/2000/svg"><title>Chrome Copy</title><g transform="translate(.252 .452)" fill="#646B81" fill-rule="evenodd"><ellipse cx="8.575" cy="8.4" rx="3.43" ry="3.36"/><path d="M8.575 12.32a3.98 3.98 0 0 1-3.458-1.96L1.315 3.92A8.258 8.258 0 0 0 0 8.4c0 4.312 3.344 7.868 7.604 8.344l2.887-4.928c-.543.336-1.2.504-1.916.504z"/><path d="M16.436 5.04h-5.802a3.866 3.866 0 0 1 1.943 3.36c0 .728-.2 1.372-.543 1.96L8.261 16.8h.314c4.746 0 8.576-3.752 8.576-8.4a8.244 8.244 0 0 0-.715-3.36z"/><path d="M8.575 4.48h7.575C14.721 1.82 11.863 0 8.575 0 5.745 0 3.23 1.344 1.687 3.416l2.887 4.928c.028-2.156 1.8-3.864 4.001-3.864z"/></g></svg>
