<svg width="16" height="16" viewBox="0 0 16 16" fill="none" xmlns="http://www.w3.org/2000/svg"><g clip-path="url(#a)"><path d="M14.44 11.909c-.213.111-.433.21-.658.294a6.367 6.367 0 0 1-2.244.404c-2.958 0-5.534-2.034-5.534-4.645a1.967 1.967 0 0 1 1.027-1.707c-2.675.112-3.363 2.9-3.363 4.533 0 4.618 4.256 5.086 5.173 5.086.494 0 1.24-.144 1.688-.285l.081-.028a8.02 8.02 0 0 0 4.163-3.3.25.25 0 0 0-.333-.352Z" fill="url(#b)"/><path d="M14.44 11.909c-.213.111-.433.21-.658.294a6.367 6.367 0 0 1-2.244.404c-2.958 0-5.534-2.034-5.534-4.645a1.967 1.967 0 0 1 1.027-1.707c-2.675.112-3.363 2.9-3.363 4.533 0 4.618 4.256 5.086 5.173 5.086.494 0 1.24-.144 1.688-.285l.081-.028a8.02 8.02 0 0 0 4.163-3.3.25.25 0 0 0-.333-.352Z" fill="#646B81"/><path d="M6.607 15.089a4.95 4.95 0 0 1-1.421-1.334 5.044 5.044 0 0 1 1.845-7.5c.195-.092.528-.258.972-.25a2.022 2.022 0 0 1 1.605.813c.253.336.392.745.398 1.166 0-.013 1.528-4.975-5-4.975-2.744 0-5 2.603-5 4.888a8.135 8.135 0 0 0 .757 3.5 8 8 0 0 0 9.773 4.194 4.723 4.723 0 0 1-3.923-.5l-.006-.002Z" fill="url(#c)"/><path d="M6.607 15.089a4.95 4.95 0 0 1-1.421-1.334 5.044 5.044 0 0 1 1.845-7.5c.195-.092.528-.258.972-.25a2.022 2.022 0 0 1 1.605.813c.253.336.392.745.398 1.166 0-.013 1.528-4.975-5-4.975-2.744 0-5 2.603-5 4.888a8.135 8.135 0 0 0 .757 3.5 8 8 0 0 0 9.773 4.194 4.723 4.723 0 0 1-3.923-.5l-.006-.002Z" fill="#646B81"/><path d="M9.519 9.304c-.051.065-.207.156-.207.354 0 .163.107.32.295.451.9.625 2.594.543 2.598.543a3.722 3.722 0 0 0 1.892-.522 3.836 3.836 0 0 0 1.902-3.305c.016-1.4-.5-2.332-.71-2.744C13.967 1.49 11.108 0 8 0A8 8 0 0 0-.003 7.888c.03-2.284 2.3-4.129 5-4.129.219 0 1.466.022 2.625.63 1.021.536 1.556 1.183 1.928 1.825.386.667.455 1.51.455 1.845 0 .336-.171.834-.487 1.245Z" fill="url(#d)"/><path d="M9.519 9.304c-.051.065-.207.156-.207.354 0 .163.107.32.295.451.9.625 2.594.543 2.598.543a3.722 3.722 0 0 0 1.892-.522 3.836 3.836 0 0 0 1.902-3.305c.016-1.4-.5-2.332-.71-2.744C13.967 1.49 11.108 0 8 0A8 8 0 0 0-.003 7.888c.03-2.284 2.3-4.129 5-4.129.219 0 1.466.022 2.625.63 1.021.536 1.556 1.183 1.928 1.825.386.667.455 1.51.455 1.845 0 .336-.171.834-.487 1.245Z" fill="#646B81"/></g><defs><linearGradient id="b" x1="3.668" y1="11.066" x2="14.815" y2="11.066" gradientUnits="userSpaceOnUse"><stop stop-color="#0C59A4"/><stop offset="1" stop-color="#114A8B"/></linearGradient><linearGradient id="c" x1="9.545" y1="6.231" x2="2.583" y2="13.814" gradientUnits="userSpaceOnUse"><stop stop-color="#1B9DE2"/><stop offset=".16" stop-color="#1595DF"/><stop offset=".67" stop-color="#0680D7"/><stop offset="1" stop-color="#0078D4"/></linearGradient><radialGradient id="d" cx="0" cy="0" r="1" gradientUnits="userSpaceOnUse" gradientTransform="matrix(-.50607 12.65188 -26.94585 -1.07783 1.614 2.961)"><stop stop-color="#35C1F1"/><stop offset=".11" stop-color="#34C1ED"/><stop offset=".23" stop-color="#2FC2DF"/><stop offset=".31" stop-color="#2BC3D2"/><stop offset=".67" stop-color="#36C752"/></radialGradient><clipPath id="a"><path fill="#fff" d="M0 0h16v16H0z"/></clipPath></defs></svg>
