<svg width="18" height="16" viewBox="0 0 18 16" xmlns="http://www.w3.org/2000/svg"><title>firefox copy</title><g transform="translate(.417 .195)" fill="#646B81" fill-rule="evenodd"><ellipse opacity=".3" cx="8.323" cy="7.609" rx="7.768" ry="7.609"/><path d="M16.646 5.873c0 .202-.016.594-.048 1.178a12.912 12.912 0 0 1-.211 1.72c-.11.563-.31 1.194-.602 1.895-.293.7-.65 1.332-1.073 1.895-.423.562-1.003 1.093-1.74 1.592a7.316 7.316 0 0 1-2.503 1.067 7.37 7.37 0 0 1-1.528.223.53.53 0 0 0-.13.032c-.434.02-.867.02-1.3 0-2.689-.212-4.737-1.508-6.145-3.886C.716 10.464.346 9.392.26 8.373a6.885 6.885 0 0 0-.13.764C.065 7.927.163 6.94.423 6.175A4.061 4.061 0 0 0 0 7.067c.173-.956.4-1.709.683-2.261.021-.128.151-.361.39-.701V4.01c-.044-.595.016-1.13.179-1.609.162-.477.298-.774.406-.891a8.39 8.39 0 0 1 .26-.271c.022.51.293.998.813 1.465.13.021.249.032.358.032a4.14 4.14 0 0 1 1.69.032c.347-.425.878-.712 1.594-.86l.617-.032c-.629.36-1.008.881-1.138 1.56.239.489.553.733.943.733h.715c.369 0 .564.032.586.095v.064c.021.021.021.053 0 .096v.063c-.022.213-.098.372-.228.478-.022 0-.033.006-.033.016s-.01.016-.032.016c0 .021-.098.085-.293.191-.26.17-.466.308-.617.414-.282.17-.423.287-.423.35v.032h-.033c.065.127.109.287.13.478.044.19.054.308.033.35V7.1a2.846 2.846 0 0 0-.748-.255c-.303.127-.477.266-.52.414l-.065.255c0 .403.293.775.878 1.114.238.15.482.234.731.255.25.022.445.011.586-.032a5.83 5.83 0 0 0 .52-.19c.206-.085.352-.139.439-.16.65-.17 1.181-.02 1.593.446.13.127.157.25.081.366-.076.117-.19.154-.341.112-.065.02-.109.026-.13.015-.022-.01-.07 0-.147.033-.076.031-.13.053-.162.063a.77.77 0 0 0-.162.096c-.077.053-.136.09-.18.111a1.55 1.55 0 0 0-.211.143.879.879 0 0 1-.244.144c-.26.191-.634.329-1.121.414-.488.085-.895.085-1.22 0 .26.19.466.33.618.414.152.085.401.218.748.398.347.18.645.297.894.35.249.053.563.08.943.08.379 0 .726-.064 1.04-.191.314-.128.65-.345 1.008-.653a6.186 6.186 0 0 0 1.024-1.163c.066-.106.109-.17.13-.19.044 0-.01.286-.162.86-.065.297-.087.445-.065.445.368-.255.623-.743.764-1.465.14-.721.157-1.422.048-2.102.26.106.445.308.553.605l.066.064c.13-.403.205-.929.227-1.576.021-.648-.044-1.184-.195-1.609.281.085.541.361.78.828a4.182 4.182 0 0 0-.292-.94 3.408 3.408 0 0 0-.44-.732 6.646 6.646 0 0 0-.52-.573 3.087 3.087 0 0 0-.568-.446 10.95 10.95 0 0 0-.57-.318 3.532 3.532 0 0 0-.52-.223 6.358 6.358 0 0 0-.731-.191c-.065-.01-.087-.016-.065-.016a6.246 6.246 0 0 1 1.658-.223c-.065-.106-.19-.202-.374-.287a4.46 4.46 0 0 0-.602-.223 8.214 8.214 0 0 0-.633-.16c-.207-.041-.45-.094-.732-.158h-.032.064c.607-.17 1.561-.042 2.861.382.477.149.911.42 1.301.812.39.393.634.685.732.876.097.191.168.35.211.477v-.127c.021-.106.005-.27-.049-.494a4.687 4.687 0 0 0-.244-.716c.021 0 .054.016.098.048.043.032.124.149.244.35.119.202.254.494.406.876.238.573.444 1.603.618 3.089l.195-1.21c.021.106.032.26.032.462"/></g></svg>
