<svg width="18" height="18" viewBox="0 0 18 18" xmlns="http://www.w3.org/2000/svg"><title>safari wired icon copy</title><g transform="translate(.322 .452)" fill="none" fill-rule="evenodd"><ellipse fill="#646B81" cx="8.575" cy="8.4" rx="8.575" ry="8.4"/><path d="M7.715 7.54l-3.348 5.067 5.066-3.349 3.349-5.066L7.715 7.54z" stroke="#F3F5FA" stroke-width=".5"/><path fill="#FFF" d="M7.535 7.36l6.13-4.052-4.051 6.13z"/><path fill="#F3F5FA" d="M8.453 1.2h1v1.2h-1zM8.453 14.4h1v1.2h-1zM12.138 2.103l.866.5-.6 1.04-.866-.5zM5.4 13.534l.866.5-.6 1.04-.866-.5zM14.868 4.693l.5.866-1.039.6-.5-.866zM3.198 11.294l.5.866-1.039.6-.5-.866zM12.351 14.574l-.866.5-.6-1.04.866-.5zM5.612 3.142l-.866.5-.6-1.039.866-.5zM14.991 11.893l-.5.866-1.04-.6.5-.866zM3.32 5.294l-.5.866-1.039-.6.5-.866zM15.913 8.277v1h-1.2v-1zM2.438 8.277v1h-1.2v-1z"/></g></svg>
