<svg width="16" height="16" viewBox="0 0 16 16" xmlns="http://www.w3.org/2000/svg"><title>Windows</title><path d="M7.366 1.65a600.46 600.46 0 0 1 8.28-1.202v7.26c-2.759.01-5.519.052-8.28.06-.002-2.04-.002-4.079 0-6.118zm-7 .977c2.075-.32 4.16-.597 6.244-.858l.003 6.02c-2.082-.001-4.165.03-6.247.025V2.627zm0 5.819c2.08-.007 4.161.026 6.242.022 0 2.013.005 4.025.002 6.038-2.08-.308-4.162-.578-6.244-.86v-5.2zm6.988.08h8.291c.004 2.413 0 4.827 0 7.242a599.802 599.802 0 0 0-8.28-1.171l-.011-6.07z" fill="#646B81" fill-rule="evenodd"/></svg>
